<svg xmlns="http://www.w3.org/2000/svg" viewBox="0 0 81.253 289.57">
  <path stroke="#000" d="m274.79 512.36s-3.5049-14.329 0-20c7.8371-12.681 40-20 40-20s3.5049 14.329 0 20c-7.8371 12.681-40 20-40 20z" transform="translate(-254.25 -257.58)"/>
  <path stroke="#000" d="m274.61 482.35s-3.5049-14.329 0-20c7.8371-12.681 40-20 40-20s3.5049 14.329 0 20c-7.8371 12.681-40 20-40 20z" transform="translate(-254.25 -257.58)"/>
  <path stroke="#000" d="m274.98 452.34s-3.5049-14.329 0-20c7.8371-12.681 40-20 40-20s3.5049 14.329 0 20c-7.8371 12.681-40 20-40 20z" transform="translate(-254.25 -257.58)"/>
  <path stroke="#000" d="m275.16 422.33s-3.5049-14.329 0-20c7.8371-12.681 40-20 40-20s3.5049 14.329 0 20c-7.8371 12.681-40 20-40 20z" transform="translate(-254.25 -257.58)"/>
  <path stroke="#000" d="m275.17 392.48s-3.5049-14.329 0-20c7.8371-12.681 40-20 40-20s3.5049 14.329 0 20c-7.8371 12.681-40 20-40 20z" transform="translate(-254.25 -257.58)"/>
  <path stroke="#000" d="m275.34 362.31s-3.5049-14.329 0-20c7.8371-12.681 40-20 40-20s3.5049 14.329 0 20c-7.8371 12.681-40 20-40 20z" transform="translate(-254.25 -257.58)"/>
  <path stroke="#000" d="m275.53 332.31s-3.5049-14.329 0-20c7.8371-12.681 40-20 40-20s3.5049 14.329 0 20c-7.8371 12.681-40 20-40 20z" transform="translate(-254.25 -257.58)"/>
  <path stroke="#000" d="m295 512.36h20s2.8355-8.2476 0-10c-6.3404-3.9186-20 10-20 10z" transform="translate(-254.25 -257.58)"/>
  <path stroke="#000" d="m294.85 293.08h-20s-2.8355 8.2476 0 10c6.3404 3.9186 20-10 20-10z" transform="translate(-254.25 -257.58)"/>
  <path stroke="#000" d="m265 517.36h60v5h-60z" transform="translate(-254.25 -257.58)"/>
  <path stroke="#000" stroke-width="1.372" d="m255.19 527.55h79.628v18.914h-79.628z" transform="translate(-254.25 -257.58)"/>
  <path stroke="#000" d="m265 282.11h60v5h-60z" transform="translate(-254.25 -257.58)"/>
  <path stroke="#000" stroke-width="1.372" d="m254.93 258.26h79.628v18.914h-79.628z" transform="translate(-254.25 -257.58)"/>
  <path stroke="#fff" stroke-width=".5" fill="#f00" d="m284.68 401.69s2.551-2.644 2.569-3.1591c0.0181-0.5151-2.1048-3.2198-1.7943-3.7418 0.31055-0.52204 1.5384-0.23834 1.4736-0.8423-0.0648-0.60397-2.6639-2.9643-1.8262-3.8117 0.83768-0.8474 2.0016-0.70346 2.9129 0.27399 0.91126 0.97745 1.0987 2.4968 1.7397 1.866 0.64099-0.63081 0.0222-1.6152-0.92699-2.4908-0.94921-0.87563-3.1966-5.4241-1.5185-5.7263 1.6781-0.30221 3.2558 3.2429 4.2911 2.6431 1.0353-0.59979-0.8807-4.7928 0.6697-5.3746 1.5504-0.58174 1.7846 2.0567 2.4964 1.8582 0.71179-0.19854-0.13652-1.5004 0.0472-1.8378 0.1837-0.3374-0.22447-0.95339 0.58218-1.4065 0.80667-0.45309 1.4986-1.0649 2.0785-0.4429 0.5799 0.62202 0.0227 1.8059 0.82241 1.0603 0.79973-0.74558 0.79789-1.674 1.2491-1.7957 0.45124-0.12172 0.9233 0.63405 1.4185 0.23881 0.49521-0.39523 1.3208-0.89923 2.0216-0.29017 0.70069 0.60906-0.74003 1.9854-0.45865 2.7861 0.28138 0.80066 1.6351 0.43551 1.6499 1.4847s-0.21799 2.296-1.5018 2.6292c-1.2838 0.33323-2.1294 0.42392-1.3338 0.77845 0.79558 0.35448 1.9336 0.25686 2.259 0.78402 0.32535 0.52715 0.68263 1.1242 0.0926 1.774-0.59009 0.64978-2.2872 1.0029-3.1138 1.0427-0.82657 0.0398-2.3478-0.70116-2.5306 0.10043-0.18281 0.80159 2.2918 1.3181 2.8268 1.7494 0.535 0.43134 1.2746 1.4028 0.95801 2.0965-0.31653 0.69376-0.697 1.2477-2.2492 0.90108-1.5522-0.34665-5.6768-2.3478-5.5292-1.655 0.14763 0.69282 1.9743 1.5476 2.4524 2.1317 0.47809 0.58406 0.91127 0.97746 0.52483 1.7031-0.38645 0.72568-1.2838 0.33321-2.1363 0.13143-0.8525-0.20179-2.5204-1.1714-2.831-0.64933-0.31055 0.52204 0.34432 0.47623 0.64468 1.226 0.30036 0.74974 0.89923 1.3208 0.19345 1.3477-0.70578 0.0268-0.61692-0.056-1.8318-0.21892-1.2149-0.16291-2.5678-0.76441-3.3616-0.1905-0.79372 0.57388 4.8239-7.7877 6.061-9.24s8.2757-9.9032 8.2757-9.9032-7.9807 9.4334-8.6087 10.185c-0.62803 0.75159-4.673 6.7815-5.2621 7.8955-0.58916 1.114-2.9985 4.6225-2.9985 4.6225z" transform="translate(-254.25 -257.58)"/>
  <path stroke="#fff" stroke-width=".5" fill="#f00" d="m284.21 461.68s2.551-2.644 2.569-3.1591c0.0181-0.5151-2.1048-3.2198-1.7943-3.7418 0.31055-0.52204 1.5384-0.23834 1.4736-0.8423-0.0648-0.60397-2.6639-2.9643-1.8262-3.8117 0.83768-0.8474 2.0016-0.70346 2.9129 0.27399 0.91126 0.97745 1.0987 2.4968 1.7397 1.866 0.64099-0.63081 0.0222-1.6152-0.92699-2.4908-0.94921-0.87563-3.1966-5.4241-1.5185-5.7263 1.6781-0.30221 3.2558 3.2429 4.2911 2.6431 1.0353-0.59979-0.8807-4.7928 0.6697-5.3746 1.5504-0.58174 1.7846 2.0567 2.4964 1.8582 0.71179-0.19854-0.13652-1.5004 0.0472-1.8378 0.1837-0.3374-0.22447-0.95339 0.58218-1.4065 0.80667-0.45309 1.4986-1.0649 2.0785-0.4429 0.5799 0.62202 0.0227 1.8059 0.82241 1.0603 0.79973-0.74558 0.79789-1.674 1.2491-1.7957 0.45124-0.12172 0.9233 0.63405 1.4185 0.23881 0.49521-0.39523 1.3208-0.89923 2.0216-0.29017 0.70069 0.60906-0.74003 1.9854-0.45865 2.7861 0.28138 0.80066 1.6351 0.43551 1.6499 1.4847s-0.21799 2.296-1.5018 2.6292c-1.2838 0.33323-2.1294 0.42392-1.3338 0.77845 0.79558 0.35448 1.9336 0.25686 2.259 0.78402 0.32535 0.52715 0.68263 1.1242 0.0926 1.774-0.59009 0.64978-2.2872 1.0029-3.1138 1.0427-0.82657 0.0398-2.3478-0.70116-2.5306 0.10043-0.18281 0.80159 2.2918 1.3181 2.8268 1.7494 0.535 0.43134 1.2746 1.4028 0.95801 2.0965-0.31653 0.69376-0.697 1.2477-2.2492 0.90108-1.5522-0.34665-5.6768-2.3478-5.5292-1.655 0.14763 0.69282 1.9743 1.5476 2.4524 2.1317 0.47809 0.58406 0.91127 0.97746 0.52483 1.7031-0.38645 0.72568-1.2838 0.33321-2.1363 0.13143-0.8525-0.20179-2.5204-1.1714-2.831-0.64933-0.31055 0.52204 0.34432 0.47623 0.64468 1.226 0.30036 0.74974 0.89923 1.3208 0.19345 1.3477-0.70578 0.0268-0.61692-0.056-1.8318-0.21892-1.2149-0.16291-2.5678-0.76441-3.3616-0.1905-0.79372 0.57388 4.8239-7.7877 6.061-9.24s8.2757-9.9032 8.2757-9.9032-7.9807 9.4334-8.6087 10.185c-0.62803 0.75159-4.673 6.7815-5.2621 7.8955-0.58916 1.114-2.9985 4.6225-2.9985 4.6225z" transform="translate(-254.25 -257.58)"/>
  <path stroke="#fff" stroke-width=".5" fill="#f00" d="m285.22 338.94s2.551-2.644 2.569-3.1591c0.0181-0.5151-2.1048-3.2198-1.7943-3.7418 0.31055-0.52204 1.5384-0.23834 1.4736-0.8423-0.0648-0.60397-2.6639-2.9643-1.8262-3.8117 0.83768-0.8474 2.0016-0.70346 2.9129 0.27399 0.91126 0.97745 1.0987 2.4968 1.7397 1.866 0.64099-0.63081 0.0222-1.6152-0.92699-2.4908-0.94921-0.87563-3.1966-5.4241-1.5185-5.7263 1.6781-0.30221 3.2558 3.2429 4.2911 2.6431 1.0353-0.59979-0.8807-4.7928 0.6697-5.3746 1.5504-0.58174 1.7846 2.0567 2.4964 1.8582 0.71179-0.19854-0.13652-1.5004 0.0472-1.8378 0.1837-0.3374-0.22447-0.95339 0.58218-1.4065 0.80667-0.45309 1.4986-1.0649 2.0785-0.4429 0.5799 0.62202 0.0227 1.8059 0.82241 1.0603 0.79973-0.74558 0.79789-1.674 1.2491-1.7957 0.45124-0.12172 0.9233 0.63405 1.4185 0.23881 0.49521-0.39523 1.3208-0.89923 2.0216-0.29017 0.70069 0.60906-0.74003 1.9854-0.45865 2.7861 0.28138 0.80066 1.6351 0.43551 1.6499 1.4847s-0.21799 2.296-1.5018 2.6292c-1.2838 0.33323-2.1294 0.42392-1.3338 0.77845 0.79558 0.35448 1.9336 0.25686 2.259 0.78402 0.32535 0.52715 0.68263 1.1242 0.0926 1.774-0.59009 0.64978-2.2872 1.0029-3.1138 1.0427-0.82657 0.0398-2.3478-0.70116-2.5306 0.10043-0.18281 0.80159 2.2918 1.3181 2.8268 1.7494 0.535 0.43134 1.2746 1.4028 0.95801 2.0965-0.31653 0.69376-0.697 1.2477-2.2492 0.90108-1.5522-0.34665-5.6768-2.3478-5.5292-1.655 0.14763 0.69282 1.9743 1.5476 2.4524 2.1317 0.47809 0.58406 0.91127 0.97746 0.52483 1.7031-0.38645 0.72568-1.2838 0.33321-2.1363 0.13143-0.8525-0.20179-2.5204-1.1714-2.831-0.64933-0.31055 0.52204 0.34432 0.47623 0.64468 1.226 0.30036 0.74974 0.89923 1.3208 0.19345 1.3477-0.70578 0.0268-0.61692-0.056-1.8318-0.21892-1.2149-0.16291-2.5678-0.76441-3.3616-0.1905-0.79372 0.57388 4.8239-7.7877 6.061-9.24s8.2757-9.9032 8.2757-9.9032-7.9807 9.4334-8.6087 10.185c-0.62803 0.75159-4.673 6.7815-5.2621 7.8955-0.58916 1.114-2.9985 4.6225-2.9985 4.6225z" transform="translate(-254.25 -257.58)"/>
</svg>