<!-- Uploaded to: SVG Repo, www.svgrepo.com, Transformed by: SVG Repo Tools -->
<?xml-stylesheet type="text/css" href="../../assets/css/style.css"?>
<svg xmlns:svg="http://www.w3.org/2000/svg" xmlns="http://www.w3.org/2000/svg" xmlns:xlink="http://www.w3.org/1999/xlink" width="40px" height="40px" viewBox="0 0 1200 1200" xml:space="preserve" class="icon-linkedin-svg">
  <path class="icon-linkedin-path" d="M0,0v1200h1200V0H0z M294.287,235.913	c47.53,0.535,94.35,33.325,96.387,90.088c1.016,50.475-42.971,88.921-97.632,90.088h-1.318	c-47.057-0.543-93.012-34.156-95.142-90.088C197.253,276.088,239.209,237.097,294.287,235.913z M804.199,474.39	c52.255,0.324,101.572,15.826,142.09,57.13c42.106,46.96,55.624,111.71,57.129,177.538v299.414H830.859V729.419	c-0.384-52.302-18.3-115.877-87.524-117.993c-40.571,0.432-69.18,24.007-88.77,63.428c-5.348,12.688-6.118,27.273-6.372,41.821	v291.797H475.708c0.66-145.877,1.567-291.743,1.245-437.622c0-41.438-0.399-69.34-1.245-83.716h172.485v73.535	c14.641-20.823,30.879-40.571,52.66-56.47C730.398,483.114,765.889,475.031,804.199,474.39z M206.763,487.134h172.485v521.338	H206.763V487.134L206.763,487.134z"/>
  <a xmlns="http://www.w3.org/2000/svg" id="anchor" href="https://www.linkedin.com/in/axel-lancieri-027247263/" rel="noreferrer" xmlns:xlink="http://www.w3.org/1999/xlink" target="_blank">
    <rect x="0" y="0" width="100%" height="100%" fill-opacity="0"/>
  </a>
</svg>