<?xml-stylesheet type="text/css" href="../../assets/css/style.css"?>
<svg xmlns:svg="http://www.w3.org/2000/svg" xmlns="http://www.w3.org/2000/svg" viewBox="0 0 130 130" width="25" heigh="25">
  <g class="icon-mail-g">
    <ellipse class="icon-mail-ellipse" cx="381.54001" cy="525.82001" rx="143.45773" ry="143.45013"/>
    <g transform="matrix(3.82 0 0 3.82 -1398.1 -1597.5)">
      <path class="icon-mail-path" d="m 1005.1191,267.46484 c -1.0293,-7e-5 -1.8731,0.84123 -1.873,1.8711 l 0,29.51953 c -4e-4,1.03008 0.8424,1.87509 1.873,1.875 l 42.1719,0 c 1.0307,9e-5 1.8736,-0.84482 1.8731,-1.875 l 0,-29.51953 c 0,-1.02985 -0.8438,-1.87117 -1.8731,-1.8711 l -42.1719,0 z m 4.9922,4.48438 32.1758,0 -16.0859,14.05469 -16.0899,-14.05469 z m 35.3067,2.23828 0,20.76367 -11.7637,-10.48633 11.7637,-10.27734 z m -38.4258,0.0117 11.8125,10.32226 -11.8125,10.53125 0,-20.85351 z m 23.8203,12.74805 11.1914,9.97851 -31.4824,0 11.1269,-9.91992 3.3164,2.89844 c 0.7033,0.61399 1.7615,0.61395 2.4649,0 l 3.3828,-2.95703 z"/>
    </g>
  </g>
</svg>